<svg width="600" height="400" viewBox="0 0 600 400" fill="none" xmlns="http://www.w3.org/2000/svg">
<path d="M212.621 29.8499C208.769 26.5806 208.939 23.8142 213.299 20H386.302C388.249 21.8023 390.535 23.6047 389.308 26.7063C388.969 27.6704 387.741 28.2991 386.895 29.0955L383.381 30.5206H218.294C216.391 30.4078 214.497 30.1839 212.621 29.8499Z" fill="#FDD303"/>
<path d="M212.621 29.8511C214.497 30.185 216.391 30.409 218.293 30.5217H361.454C361.454 31.1085 361.454 31.7372 361.454 32.2821C358.152 49.3833 354.836 66.4705 351.506 83.5437C348.247 100.309 345.072 117.075 341.643 133.841C339.981 142.62 336.448 150.948 331.28 158.269C326.112 165.591 319.429 171.737 311.674 176.301C308.711 178.103 305.621 179.78 302.573 181.456H301.938H276.54C267.052 177.539 258.542 171.617 251.607 164.103L246.697 158.655L238.612 142.182C234.21 120.554 229.821 98.9403 225.447 77.3403C222.907 65.2689 220.537 53.3652 218.293 41.3776L216.643 31.7372L212.41 30.6474L212.621 29.8511Z" fill="#FDE35A"/>
<path d="M364.375 293.786L371.444 294.122V315.414H350.279C349.729 315.414 349.136 315.414 348.544 315.414H230.993C230.104 315.414 229.215 315.414 228.242 315.666V358C229.596 358 230.654 358 231.713 358H346.935C347.994 358 349.052 358 350.068 357.706L371.233 358V378.957C370.301 378.957 369.37 378.957 368.397 378.957H206.442V293.786H235.226H316.204C325.178 293.786 334.152 293.786 343.083 293.786H364.375Z" fill="#978ECA"/>
<path d="M302.531 181.413C305.578 179.737 308.669 178.06 311.632 176.258C319.386 171.694 326.07 165.548 331.238 158.226C336.406 150.905 339.939 142.577 341.601 133.798C345.03 117.032 348.205 100.266 351.464 83.5006C354.724 66.7348 357.983 49.4241 361.412 32.3229C361.412 31.778 361.412 31.1493 361.412 30.5625H383.381L381.349 41.3765C378.471 55.9208 375.635 70.4652 372.883 84.9676C369.045 104.081 365.137 123.166 361.158 142.223L353.115 158.528L352.311 159.156C344.88 169.153 334.821 176.938 323.23 181.665L302.531 181.413Z" fill="#FDD303"/>
<path d="M343.04 293.744C334.108 293.744 325.134 293.744 316.16 293.744L235.225 293.786C235.202 286.428 238.1 279.356 243.294 274.094C248.489 268.833 255.564 265.804 262.994 265.661C266.846 265.661 270.74 265.661 274.592 265.661H299.99H322.595C323.293 266.342 324.075 266.934 324.923 267.422C330.223 269.558 334.769 273.194 337.992 277.876C341.215 282.559 342.971 288.078 343.04 293.744Z" fill="#FDE35A"/>
<path d="M322.426 265.787L324.966 265.577C328.86 265.577 332.754 265.577 336.607 265.577C344.043 265.699 351.131 268.721 356.33 273.987C361.53 279.253 364.421 286.338 364.375 293.702H343.21C343.102 288.039 341.309 282.533 338.057 277.873C334.804 273.213 330.236 269.607 324.923 267.505C324.019 267.042 323.18 266.465 322.426 265.787Z" fill="#FDD303"/>
<path d="M381.434 41.334L383.382 30.5201L386.81 29.095C387.869 29.5979 388.885 30.562 389.943 30.562C402.092 30.562 414.283 30.562 426.431 30.562C433.077 30.562 434.897 32.1547 434.432 38.6096C432.823 84.2965 412.716 120.175 375.17 146.456C367.985 150.895 360.536 154.898 352.862 158.443C355.528 152.994 358.237 147.587 360.904 142.139C361.702 141.988 362.473 141.719 363.19 141.342C371.397 135.686 379.282 129.585 386.81 123.067C403.037 107.727 414.456 88.0818 419.701 66.4828C421.733 58.3933 422.664 50.0523 424.188 41.334H381.434Z" fill="#FDD303"/>
<path d="M212.579 30.604L216.812 31.6938C217.278 34.7535 217.828 38.0648 218.336 41.3341H175.964C176.337 53.5732 178.696 65.6732 182.948 77.1711C191.868 102.139 208.727 123.567 230.993 138.241C233.321 139.791 235.903 140.881 238.4 142.223L246.486 158.695C217.347 146.333 193.576 124.146 179.392 96.0746C170.146 78.229 165.218 58.4981 165 38.442C165 32.2806 166.566 30.604 172.916 30.604H212.579Z" fill="#FDE35A"/>
<path d="M371.444 315.414V294.121H393.159V379.333H371.444C371.444 372.292 371.444 365.25 371.444 358.376C371.401 343.958 371.401 329.665 371.444 315.414Z" fill="#8378C0"/>
<path d="M276.412 181.498H301.811C303.873 184.643 305.482 188.056 306.594 191.641C307.737 198.305 303.758 202.79 298.128 206.143L284.752 206.814C281.986 206.884 279.268 206.087 276.988 204.536C274.707 202.985 272.98 200.761 272.052 198.18C270.936 195.724 270.589 192.993 271.057 190.341C271.525 187.688 272.786 185.235 274.677 183.3C275.312 182.629 275.862 182.084 276.412 181.498Z" fill="#FDE35A"/>
<path d="M299.821 265.662H274.423C276.286 255.644 278.106 245.585 279.926 235.567C281.173 235.236 282.448 235.025 283.736 234.938C289.027 234.938 294.361 234.938 299.652 234.938V265.746L299.821 265.662Z" fill="#FDE35A"/>
<path d="M299.821 265.662C299.821 255.644 299.821 245.585 299.821 235.567H319.547L325.008 265.62L322.468 265.829L299.821 265.662Z" fill="#FDD303"/>
<path d="M298.383 206.143C303.843 202.79 307.822 198.305 306.849 191.641C305.737 188.056 304.127 184.643 302.065 181.498H302.7H323.357C325.519 183.296 327.119 185.664 327.974 188.328C328.828 190.992 328.901 193.842 328.183 196.545C327.384 199.534 325.601 202.175 323.118 204.049C320.634 205.924 317.591 206.926 314.468 206.898H299.822L298.383 206.143Z" fill="#FDD303"/>
<path d="M298.382 206.143L299.821 206.856C299.821 212.64 299.821 218.466 299.821 224.292H282.212C283.185 218.466 284.117 212.598 285.09 206.772L298.382 206.143Z" fill="#FDE35A"/>
<path d="M299.78 224.292C299.78 218.466 299.78 212.64 299.78 206.855H314.256C315.272 212.682 316.331 218.466 317.389 224.292H299.78Z" fill="#FDD303"/>
<path d="M299.78 224.292H317.431C318.108 224.292 318.828 224.292 319.505 224.292C322.511 224.586 324.966 225.592 325.389 229.029C325.813 232.466 324.204 233.933 320.479 234.98C320.145 235.081 319.819 235.207 319.505 235.358H299.78V234.645C299.78 231.166 299.78 227.687 299.78 224.25V224.292Z" fill="#FDD303"/>
<path d="M299.737 224.543C299.737 227.98 299.737 231.459 299.737 234.938C294.446 234.938 289.112 234.938 283.821 234.938C282.533 235.025 281.258 235.236 280.011 235.567C279.122 235.274 277.895 235.315 277.387 234.687C276.117 233.22 274.339 231.417 274.381 229.783C274.424 228.148 276.159 226.262 277.641 225.088C279.122 223.915 280.604 224.585 281.874 224.376L299.737 224.543Z" fill="#FDE35A"/>
<path d="M350.067 357.916C349.051 357.916 347.993 358.209 346.935 358.209H231.501C230.442 358.209 229.384 358.209 228.03 358.209V315.708C229.003 315.708 229.892 315.456 230.781 315.456H348.374C348.967 315.456 349.559 315.456 350.11 315.456L350.067 357.916Z" fill="#FD9902"/>
<path d="M350.068 357.915V315.582H371.233C371.233 329.833 371.233 344.125 371.233 358.376L350.068 357.915Z" fill="#FA8802"/>
</svg>
