<svg width="600" height="400" viewBox="0 0 600 400" fill="none" xmlns="http://www.w3.org/2000/svg">
<path d="M385.13 248.285C385.13 248.285 420.066 310.397 422.885 322.45C425.703 334.503 413.684 338.813 399.868 336.41C384.773 333.785 362.74 283.136 362.74 283.136C362.74 283.136 367.68 233.986 385.13 248.283V248.285Z" fill="#FFC4B3"/>
<path d="M343.744 209.074C343.744 209.074 357.963 210.18 371.703 226.349C383.059 239.711 410.701 285.448 410.701 285.448C410.701 285.448 382.555 310.592 368.225 308.502L339.794 267.706C339.794 267.706 334.673 206.93 343.744 209.073V209.074Z" fill="#C44141"/>
<path d="M351.679 260.927C354.156 270.306 372.599 298.045 378.263 300.346C381.986 301.76 382.94 302.017 386.834 302.774C380.142 306.554 373.313 309.245 368.225 308.503L339.794 267.708C339.794 267.708 338.253 249.41 338.36 233.248C341.765 235.048 349.733 253.316 351.679 260.927Z" fill="#933131"/>
<path d="M227.179 219.778C227.179 219.778 159.469 246.54 150.099 254.629C140.728 262.719 146.189 280.835 158.775 287.019C172.526 293.775 224.784 261.134 224.784 261.134C224.784 261.134 249.701 218.481 227.179 219.78V219.778Z" fill="#FFC4B3"/>
<path d="M269.196 210.964C269.196 210.964 256.576 204.323 236.332 210.683C219.602 215.939 171.835 239.909 171.835 239.909C171.835 239.909 182.25 276.184 195.49 282.053L241.289 262.685C241.289 262.685 278.014 213.988 269.196 210.966V210.964Z" fill="#C44141"/>
<path d="M241.688 246.98C234.592 253.596 228.648 261.191 217.134 268.025C212.075 271.029 200.129 276.264 194.111 275.193C190.207 274.406 185.471 269.577 182.799 267.287C186.448 274.051 190.791 279.968 195.491 282.051L241.291 262.683C241.291 262.683 252.347 248.021 260.87 234.289C257.03 233.999 247.392 241.578 241.69 246.98H241.688Z" fill="#933131"/>
<path d="M320.107 169.977H267.598V252.268H320.107V169.977Z" fill="#FFC4B3"/>
<path d="M293.765 243.739C322.057 243.739 320.348 203.314 320.348 203.314C320.348 203.314 352.901 209.26 356.062 219.393C359.222 229.526 354.846 257.476 354.846 264.053V365.734C354.846 369.494 321.246 373.97 293.853 374.662C266.461 373.97 232.861 369.494 232.861 365.734V264.053C232.861 257.476 228.485 229.526 231.646 219.393C234.806 209.26 267.36 203.314 267.36 203.314C267.36 203.314 262.738 243.739 293.614 243.739H293.765Z" fill="#C44141"/>
<path d="M226.704 148.556C233.895 141.365 233.895 129.707 226.704 122.516C219.513 115.325 207.854 115.325 200.663 122.516C193.471 129.707 193.471 141.365 200.663 148.556C207.854 155.747 219.513 155.747 226.704 148.556Z" fill="#FFC4B3"/>
<path d="M209.185 125.482C205.847 126.863 203.296 129.739 202.209 133.179C201.12 136.629 201.805 140.468 203.88 143.423C205.065 145.108 206.634 146.523 208.473 147.401C208.883 147.596 209.146 148.019 208.981 148.477C208.839 148.872 208.316 149.183 207.905 148.985C204.113 147.174 201.324 143.649 200.352 139.565C199.4 135.565 200.484 131.285 203.041 128.093C204.475 126.302 206.321 124.846 208.447 123.967C208.866 123.794 209.364 123.929 209.571 124.355C209.762 124.744 209.606 125.305 209.183 125.479L209.185 125.482Z" fill="#F7AB94"/>
<path d="M381.142 170.152C388.333 162.962 388.333 151.303 381.142 144.112C373.951 136.922 362.292 136.922 355.101 144.112C347.91 151.303 347.91 162.962 355.101 170.152C362.292 177.343 373.951 177.343 381.142 170.152Z" fill="#FFC4B3"/>
<path d="M375.205 148.698C378.036 150.941 379.701 154.406 379.801 158.012C379.902 161.628 378.19 165.133 375.384 167.404C373.783 168.7 371.886 169.63 369.875 169.971C369.427 170.046 369.058 170.381 369.091 170.866C369.119 171.284 369.535 171.725 369.986 171.65C374.13 170.95 377.778 168.323 379.834 164.663C381.848 161.079 381.98 156.665 380.395 152.895C379.506 150.78 378.131 148.872 376.33 147.444C375.973 147.163 375.458 147.155 375.14 147.508C374.851 147.832 374.847 148.413 375.205 148.698Z" fill="#F7AB94"/>
<path d="M282.035 204.832C299.031 207.097 310.547 204.372 321.834 201.286C333.48 198.102 344.927 192.027 353.239 181.955C364.441 168.38 382.657 103.405 379.44 89.4956C375.891 74.1489 369.515 61.9878 355.947 53.9217C341.121 45.1079 331.691 41.2375 306.987 37.5524C282.283 33.8673 272.134 34.8192 255.38 38.9221C240.05 42.6779 230.398 52.3587 222.544 65.9964C215.423 78.3587 213.855 145.919 220.607 162.172C225.616 174.231 234.792 183.382 245.003 189.826C254.898 196.07 265.118 202.037 282.035 204.83V204.832Z" fill="#FFC4B3"/>
<path d="M329.896 191.277C296.095 202.655 250.633 200.071 232.857 164.035C224.157 146.268 222.775 119.331 235.821 102.814C264.564 106.504 328.984 82.7035 328.984 82.7035C328.984 82.7035 353.409 119.628 373.733 128.507C378.15 111.449 380.846 95.5825 379.438 89.4956C375.89 74.1489 369.513 61.9878 355.946 53.9217C341.12 45.1079 331.689 41.2375 306.986 37.5524C282.282 33.8673 272.132 34.8192 255.379 38.9221C240.048 42.6779 230.397 52.3587 222.542 65.9964C215.421 78.3587 213.854 145.919 220.605 162.172C225.615 174.231 234.791 183.382 245.001 189.826C254.896 196.07 265.117 202.037 282.034 204.83C299.029 207.095 310.545 204.37 321.832 201.285C333.479 198.101 344.926 192.025 353.237 181.953C355.058 179.748 357.064 176.179 359.131 171.697C351.048 180.544 340.923 187.462 329.894 191.274L329.896 191.277Z" fill="#F7AB94"/>
<path d="M219.624 57.6901C221.581 54.9569 223.702 52.3368 226.003 49.8549C229.123 46.4887 232.621 43.4146 236.394 40.7286C247.155 22.38 270.629 14.4506 292.494 14.0202C321.293 13.4532 345.047 24.8541 367.027 42.4125C383.436 55.5224 392.283 77.0691 390.457 106.209C388.63 135.349 363.811 157.782 363.811 157.782C363.811 157.782 369.773 145.448 368.682 130.148C358.929 127.418 348.91 118.218 343.311 109.574C336.303 98.754 327.561 78.6415 324.377 66.1504C322.168 81.0149 313.18 100.837 298.195 104.952C301.019 99.0509 302.439 92.4834 302.303 85.9425C293.931 98.3896 280.628 107.42 265.97 110.604C256.954 112.561 247.49 112.293 238.564 109.97C231.146 111.881 228.015 113.703 219.457 114.966L216.793 138.178C216.793 138.178 204.634 106.958 205.822 93.6536C207.06 79.7709 211.431 69.1318 219.624 57.6901Z" fill="#523127"/>
<path d="M219.045 39.5521C219.468 39.7233 219.971 39.6605 220.343 39.3447C225.816 34.7124 234.184 33.572 240.7 36.5675C241.333 36.8613 242.089 36.5817 242.381 35.9455C242.673 35.3093 242.395 34.5569 241.759 34.2648C234.266 30.8137 225.001 32.0798 218.703 37.4095C218.169 37.8619 218.103 38.6614 218.554 39.1955C218.69 39.3573 218.86 39.4767 219.042 39.5505L219.045 39.5521Z" fill="#523127"/>
<path d="M245.911 32.2385C246.214 32.361 246.566 32.3688 246.889 32.2275C247.532 31.951 247.829 31.2049 247.552 30.5624C244.963 24.5572 239.11 20.0647 232.641 19.1128C231.949 19.0107 231.305 19.4898 231.202 20.1826C231.1 20.8753 231.581 21.5193 232.272 21.6214C237.891 22.4476 242.976 26.3511 245.224 31.5677C245.361 31.8866 245.614 32.1191 245.911 32.24V32.2385Z" fill="#523127"/>
<path d="M305.666 76.4818C304.961 78.128 299.554 90.9583 281.496 102.761C272.624 108.561 258.874 112.775 248.401 109.407C246.577 108.836 243.53 106.811 242.991 104.99C236.787 110.785 230.105 112.07 221.612 110.406C221.683 111.837 221.583 113.243 221.448 114.646C228.553 113.405 231.753 111.726 238.566 109.97C247.491 112.291 256.956 112.562 265.971 110.604C280.631 107.42 293.935 98.3913 302.304 85.9427C302.44 92.4836 301.021 99.0511 298.197 104.953C298.768 104.796 299.331 104.613 299.884 104.411C301.085 102.475 302.182 100.47 303.087 98.3254C305.976 91.274 305.443 83.7452 305.666 76.4802V76.4818Z" fill="#3E251D"/>
<path d="M368.865 127.033C368.865 127.033 356.503 121.02 351.858 115.933C331.52 93.6491 331.355 78.8066 323.477 59.1465C323.28 60.5461 323.219 62.1247 322.867 63.5023C321.48 67.7498 318.139 85.8234 305.913 101.167C316.282 93.6476 322.58 78.2569 324.377 66.1523C327.561 78.6433 336.303 98.7574 343.311 109.576C348.685 117.871 358.127 126.678 367.503 129.789C367.515 129.76 367.526 129.732 367.539 129.704C367.98 128.813 368.712 128.124 368.865 127.033Z" fill="#3E251D"/>
<path d="M219.045 39.5521C219.468 39.7233 219.971 39.6605 220.343 39.3447C225.816 34.7124 234.184 33.572 240.7 36.5675C241.333 36.8613 242.089 36.5817 242.381 35.9455C242.673 35.3093 242.395 34.5569 241.759 34.2648C234.266 30.8137 225.001 32.0798 218.703 37.4095C218.169 37.8619 218.103 38.6614 218.554 39.1955C218.69 39.3573 218.86 39.4767 219.042 39.5505L219.045 39.5521Z" fill="#523127"/>
<path d="M245.911 32.2385C246.214 32.361 246.566 32.3688 246.889 32.2275C247.532 31.951 247.829 31.2049 247.552 30.5624C244.963 24.5572 239.11 20.0647 232.641 19.1128C231.949 19.0107 231.305 19.4898 231.202 20.1826C231.1 20.8753 231.581 21.5193 232.272 21.6214C237.891 22.4476 242.976 26.3511 245.224 31.5677C245.361 31.8866 245.614 32.1191 245.911 32.24V32.2385Z" fill="#523127"/>
<path d="M374.455 84.0872C373.833 84.1092 373.178 83.5641 372.526 82.5619C371.875 81.5613 371.224 80.1068 370.575 78.3365C369.257 74.7959 367.996 70.0159 365.943 65.1794C364.926 62.7651 363.762 60.5393 362.572 58.5585C361.397 56.5683 360.154 54.8483 359.073 53.367C356.905 50.4249 355.261 48.4473 355.966 47.5676C356.309 47.1482 357.206 47.0838 358.564 47.4184C359.911 47.7592 361.7 48.5305 363.656 49.8013C365.6 51.0736 367.723 52.8455 369.609 55.087C371.512 57.3176 373.213 59.9942 374.449 62.9332C375.697 65.8612 376.372 68.7075 376.725 71.2632C377.063 73.822 377.088 76.0965 376.933 77.983C376.777 79.8711 376.458 81.3823 376.034 82.4284C375.61 83.4761 375.078 84.062 374.455 84.0856V84.0872Z" fill="#704C41"/>
<path d="M244.302 49.6946C243.764 49.3192 243.787 48.4175 244.318 47.0808C244.45 46.7462 244.615 46.3849 244.81 45.9985C245.011 45.6168 245.259 45.2225 245.531 44.7984C246.082 43.9596 246.726 43.003 247.568 42.0432C247.981 41.5563 248.423 41.0505 248.893 40.529C249.364 40.009 249.899 39.5064 250.443 38.9723C251.517 37.8932 252.788 36.8423 254.136 35.7412C256.885 33.5939 260.151 31.4403 263.846 29.5145C267.559 27.6091 271.337 26.12 274.885 25.011C276.677 24.4879 278.38 24.001 280.031 23.6711C280.852 23.4999 281.638 23.3208 282.412 23.1952C283.188 23.0726 283.934 22.9627 284.649 22.8684C286.068 22.658 287.397 22.5936 288.558 22.548C289.14 22.5292 289.681 22.5166 290.188 22.5307C290.697 22.5527 291.165 22.5873 291.591 22.6328C293.291 22.8166 294.293 23.1873 294.474 23.7481C294.654 24.3073 294.001 25.0032 292.706 25.7713C292.383 25.9629 292.018 26.1608 291.618 26.3603C291.219 26.5677 290.788 26.797 290.322 27.0201C289.39 27.4787 288.306 27.917 287.142 28.4605C286.556 28.7213 285.94 28.9867 285.296 29.2522C284.654 29.5208 284.004 29.8318 283.317 30.124C281.936 30.6926 280.508 31.3696 278.983 32.0278C275.97 33.4085 272.699 34.9448 269.342 36.6648C266.004 38.4068 262.905 40.1645 260.088 41.7998C258.707 42.6448 257.347 43.4098 256.126 44.1858C255.511 44.5675 254.887 44.9162 254.315 45.2744C253.745 45.6357 253.189 45.9781 252.649 46.2985C251.55 46.9269 250.599 47.5395 249.694 48.0311C249.246 48.2809 248.809 48.5008 248.409 48.7066C248.014 48.9171 247.642 49.1024 247.29 49.2579C245.887 49.8847 244.841 50.0685 244.302 49.693V49.6946Z" fill="#704C41"/>
<path d="M249.483 35.4066C249.048 35.2872 248.743 34.871 248.582 34.172C248.541 33.9976 248.511 33.806 248.489 33.5971C248.475 33.3913 248.487 33.1761 248.501 32.942C248.541 32.4786 248.591 31.9367 248.778 31.3885C248.863 31.1089 248.959 30.8183 249.067 30.5151C249.178 30.2135 249.339 29.9214 249.493 29.6104C249.788 28.9773 250.223 28.3663 250.691 27.7191C251.679 26.4672 253 25.2184 254.636 24.1581C256.287 23.1151 258.076 22.3737 259.785 21.9009C260.655 21.6904 261.479 21.4987 262.289 21.4233C262.691 21.3794 263.071 21.3275 263.45 21.315C263.83 21.3055 264.193 21.3024 264.539 21.3071C265.225 21.2977 265.866 21.3966 266.414 21.4846C266.689 21.5333 266.944 21.5788 267.178 21.6432C267.413 21.7139 267.629 21.7893 267.82 21.8663C268.588 22.1758 268.994 22.5276 269.02 22.9093C269.047 23.2894 268.7 23.6649 268.111 24.012C267.963 24.0984 267.8 24.1832 267.622 24.2665C267.446 24.356 267.258 24.4581 267.055 24.5524C266.653 24.7487 266.194 24.9074 265.714 25.1399C265.47 25.2482 265.217 25.3535 264.955 25.4572C264.693 25.5624 264.432 25.7006 264.155 25.8184C263.598 26.0399 263.04 26.3399 262.44 26.607C261.268 27.1992 260.024 27.8668 258.781 28.6475C257.556 29.447 256.46 30.2748 255.471 31.0649C255.006 31.478 254.515 31.8503 254.114 32.2414C253.907 32.4331 253.681 32.6074 253.491 32.7912C253.304 32.9766 253.115 33.1525 252.928 33.3206C252.534 33.6473 252.231 33.9756 251.899 34.2489C251.739 34.3872 251.571 34.5113 251.422 34.6306C251.28 34.7516 251.139 34.8615 251.001 34.9574C250.445 35.3422 249.922 35.5244 249.486 35.405L249.483 35.4066Z" fill="#704C41"/>
<path d="M273.799 43.4491C273.578 43.3879 273.42 43.1758 273.339 42.8192C273.318 42.7297 273.303 42.6323 273.292 42.5255C273.284 42.4202 273.292 42.3103 273.298 42.1909C273.318 41.9537 273.343 41.6788 273.439 41.3977C273.482 41.2547 273.532 41.1055 273.587 40.9515C273.644 40.7976 273.725 40.6484 273.804 40.4897C273.955 40.1661 274.176 39.8551 274.415 39.5253C274.919 38.8859 275.593 38.2482 276.427 37.7078C277.269 37.1753 278.183 36.7968 279.055 36.5564C279.5 36.4496 279.919 36.3507 280.332 36.313C280.538 36.291 280.731 36.2643 280.925 36.258C281.118 36.2533 281.303 36.2517 281.481 36.2533C281.831 36.2486 282.158 36.2988 282.437 36.3444C282.579 36.3695 282.708 36.3931 282.827 36.4261C282.948 36.4622 283.056 36.4999 283.155 36.5392C283.548 36.6962 283.754 36.8769 283.768 37.0717C283.782 37.2664 283.605 37.4565 283.303 37.634C283.228 37.678 283.144 37.722 283.053 37.7644C282.964 37.8099 282.868 37.8618 282.764 37.9105C282.558 38.011 282.324 38.0911 282.079 38.2105C281.955 38.2655 281.826 38.3189 281.691 38.3723C281.558 38.4257 281.424 38.4964 281.283 38.5561C280.998 38.6692 280.713 38.8215 280.408 38.9582C279.809 39.2598 279.175 39.6007 278.54 39.9996C277.915 40.408 277.356 40.8306 276.851 41.2343C276.614 41.4448 276.363 41.6348 276.159 41.8343C276.053 41.9317 275.937 42.0213 275.84 42.1155C275.744 42.2098 275.648 42.2993 275.552 42.3857C275.351 42.5522 275.197 42.7203 275.027 42.8601C274.946 42.9308 274.859 42.9936 274.784 43.0548C274.712 43.1161 274.639 43.1727 274.569 43.2214C274.284 43.4177 274.017 43.5104 273.796 43.4507L273.799 43.4491Z" fill="#704C41"/>
<path d="M377.794 67.3111C376.881 67.2483 376.111 66.4943 375.387 65.4984C375.205 65.2471 375.032 64.9784 374.845 64.6973C374.677 64.413 374.481 64.1192 374.311 63.8098C373.945 63.1956 373.587 62.5343 373.222 61.8353C372.847 61.1394 372.5 60.475 372.201 59.8372C372.041 59.5246 371.912 59.2073 371.774 58.9136C371.65 58.6104 371.529 58.3245 371.428 58.0449C371.036 56.9359 370.89 55.9683 371.465 55.395C371.752 55.1154 372.192 54.9787 372.775 54.9976C373.067 55.0054 373.392 55.0525 373.731 55.1515C374.074 55.2473 374.456 55.3761 374.828 55.5646C375.21 55.7468 375.61 55.9715 375.997 56.2479C376.399 56.515 376.777 56.8401 377.165 57.1951C377.916 57.9161 378.617 58.802 379.156 59.8042C379.684 60.8095 379.995 61.829 380.122 62.7636C380.172 63.2333 380.202 63.6778 380.164 64.0957C380.144 64.5119 380.068 64.8983 379.968 65.2455C379.88 65.5926 379.731 65.9021 379.58 66.1675C379.432 66.433 379.252 66.6545 379.055 66.8288C378.669 67.1791 378.24 67.3394 377.791 67.3127L377.794 67.3111Z" fill="#704C41"/>
<path d="M259.345 46.0739C258.692 45.5336 259.557 43.713 261.747 41.3348C262.022 41.0395 262.316 40.7347 262.629 40.419C262.941 40.1049 263.284 39.7954 263.637 39.4718C264.339 38.8184 265.14 38.1681 265.995 37.491C267.725 36.159 269.74 34.7971 271.986 33.5216C274.241 32.2524 276.506 31.1921 278.636 30.3408C279.709 29.9276 280.733 29.5444 281.724 29.2396C282.218 29.0841 282.692 28.9333 283.159 28.8061C283.627 28.6788 284.078 28.5642 284.51 28.4589C287.987 27.6311 290.356 27.6217 290.73 28.3207C291.12 29.0433 289.48 30.3298 286.715 32.0058C286.371 32.2179 286.007 32.4331 285.625 32.653C285.246 32.8745 284.852 33.1054 284.444 33.3441C283.619 33.8059 282.752 34.3149 281.825 34.8254C279.987 35.8574 277.968 36.99 275.849 38.1806C273.741 39.3823 271.732 40.5274 269.903 41.5688C268.994 42.0982 268.105 42.582 267.286 43.0501C266.87 43.2779 266.466 43.4978 266.078 43.7098C265.693 43.925 265.318 44.1261 264.955 44.3162C262.065 45.8383 260.019 46.6363 259.344 46.077L259.345 46.0739Z" fill="#704C41"/>
<path d="M365.068 72.1115C364.157 72.0691 363.36 71.4816 362.647 70.7433C362.468 70.5564 362.3 70.3585 362.124 70.1496C361.964 69.9407 361.784 69.7239 361.631 69.4977C361.302 69.0453 361.001 68.5599 360.713 68.04C360.418 67.5216 360.166 67.019 359.962 66.521C359.852 66.2776 359.769 66.0278 359.681 65.7922C359.604 65.5487 359.53 65.3146 359.475 65.0837C359.259 64.1648 359.241 63.2946 359.804 62.715C360.085 62.4307 360.489 62.2626 361.008 62.2249C361.269 62.2045 361.557 62.2186 361.857 62.2767C362.158 62.3317 362.493 62.4165 362.821 62.55C363.156 62.6804 363.505 62.8454 363.844 63.0574C364.196 63.2616 364.527 63.5145 364.863 63.7957C365.519 64.3659 366.128 65.0822 366.591 65.9021C367.049 66.7252 367.311 67.5672 367.408 68.34C367.446 68.7296 367.463 69.0971 367.421 69.4443C367.393 69.7883 367.317 70.1103 367.217 70.3978C367.126 70.6852 366.983 70.9428 366.835 71.1612C366.689 71.3811 366.513 71.5633 366.321 71.7078C365.943 71.9968 365.519 72.1304 365.069 72.1115H365.068Z" fill="#704C41"/>
<path d="M348.491 161.296C349.358 153.366 342.566 146.118 333.321 145.108C324.075 144.097 315.878 149.706 315.01 157.635C314.143 165.565 320.935 172.813 330.181 173.823C339.426 174.834 347.624 169.225 348.491 161.296Z" fill="#E37878"/>
<path d="M270.245 151.687C271.112 143.757 264.084 136.484 254.547 135.441C245.01 134.398 236.576 139.981 235.709 147.911C234.842 155.841 241.87 163.114 251.407 164.157C260.944 165.2 269.378 159.617 270.245 151.687Z" fill="#E37878"/>
<path d="M342.06 128.639C343.502 119.641 337.628 111.219 328.942 109.828C320.255 108.437 312.045 114.603 310.604 123.601C309.162 132.599 315.036 141.021 323.722 142.412C332.409 143.803 340.619 137.637 342.06 128.639Z" fill="white"/>
<path d="M338.255 134.547C342.397 127.877 340.355 119.116 333.694 114.98C327.033 110.843 318.274 112.898 314.132 119.568C309.989 126.239 312.031 134.999 318.692 139.136C325.354 143.272 334.112 141.218 338.255 134.547Z" fill="#523127"/>
<path d="M317.572 134.315C318.61 127.14 325.263 122.159 332.431 123.186C335.639 123.647 338.405 125.235 340.391 127.49C340.623 120.351 335.461 114.033 328.23 112.995C320.467 111.881 313.263 117.277 312.14 125.046C311.373 130.349 313.638 135.387 317.622 138.406C317.397 137.086 317.369 135.71 317.57 134.314L317.572 134.315Z" fill="#271713"/>
<path d="M336.079 125.586C336.359 123.587 335.287 121.786 333.685 121.562C332.084 121.338 330.559 122.776 330.279 124.775C330 126.773 331.072 128.575 332.673 128.799C334.275 129.023 335.8 127.584 336.079 125.586Z" fill="white"/>
<path d="M296.687 140.936C296.979 141.272 297.014 141.772 296.85 142.188C296.801 142.317 296.735 142.45 296.652 142.592C296.567 142.727 296.461 142.857 296.336 142.997C296.063 143.297 295.724 143.54 295.35 143.738C295.147 143.856 294.926 143.933 294.689 144.023C294.451 144.104 294.197 144.163 293.928 144.216C289.489 144.937 285.943 140.41 287.703 136.274C287.819 136.026 287.935 135.793 288.072 135.581C288.217 135.371 288.345 135.176 288.507 135.006C288.79 134.691 289.107 134.419 289.464 134.226C289.629 134.139 289.78 134.065 289.932 134.015C290.089 133.968 290.235 133.937 290.37 133.919C291.998 133.728 291.875 135.65 292.186 136.736C292.203 136.83 292.244 136.937 292.266 137.03C292.293 137.125 292.331 137.224 292.356 137.315C292.477 137.645 292.618 137.999 292.807 138.261C292.887 138.373 292.953 138.454 293.005 138.53C293.064 138.597 293.129 138.682 293.218 138.786C293.429 139.031 293.738 139.254 294.029 139.449C294.111 139.494 294.198 139.554 294.285 139.604C294.37 139.646 294.464 139.712 294.55 139.752C295.235 140.16 296.14 140.336 296.688 140.936H296.687Z" fill="#F1775B"/>
<path d="M321.179 101.864C328.083 102.532 334.669 105.664 339.462 110.7C340.362 111.645 342.015 110.427 341.105 109.471C335.936 104.038 328.951 100.557 321.472 99.8346C320.162 99.7074 319.862 101.737 321.18 101.864H321.179Z" fill="#271713"/>
<path d="M276.566 119.564C278.008 110.566 272.134 102.144 263.448 100.753C254.761 99.3614 246.551 105.528 245.11 114.526C243.668 123.523 249.542 131.945 258.228 133.337C266.915 134.728 275.125 128.562 276.566 119.564Z" fill="white"/>
<path d="M272.763 125.473C276.906 118.803 274.864 110.042 268.203 105.906C261.541 101.77 252.783 103.824 248.641 110.494C244.498 117.165 246.54 125.925 253.201 130.062C259.862 134.198 268.621 132.144 272.763 125.473Z" fill="#523127"/>
<path d="M252.078 125.239C253.117 118.064 259.769 113.083 266.937 114.11C270.145 114.57 272.912 116.158 274.897 118.414C275.13 111.275 269.968 104.957 262.737 103.919C254.973 102.805 247.769 108.201 246.646 115.97C245.88 121.273 248.145 126.311 252.129 129.33C251.904 128.01 251.876 126.634 252.077 125.238L252.078 125.239Z" fill="#271713"/>
<path d="M270.587 116.51C270.867 114.512 269.795 112.71 268.193 112.486C266.592 112.262 265.067 113.701 264.787 115.699C264.508 117.698 265.58 119.499 267.181 119.723C268.783 119.947 270.308 118.509 270.587 116.51Z" fill="white"/>
<path d="M272.45 95.1458C265.627 93.8939 258.434 95.0987 252.444 98.6283C251.32 99.2912 250.064 97.6654 251.202 96.9962C257.663 93.1886 265.333 91.7576 272.726 93.1132C274.02 93.3504 273.752 95.3846 272.45 95.1458Z" fill="#271713"/>
<path d="M272.104 139.842C272.104 139.842 284.008 144.631 293.917 146.067C303.826 147.502 315.509 146.254 315.509 146.254C315.509 146.254 312.826 172.645 290.219 169.368C267.613 166.091 272.104 139.842 272.104 139.842Z" fill="#BE3939"/>
<path d="M313.998 152.906C315.544 149.156 315.509 146.255 315.509 146.255C315.509 146.255 303.827 147.504 293.917 146.068C284.008 144.632 272.104 139.843 272.104 139.843C272.104 139.843 271.389 142.575 271.777 146.777C284.043 154.627 299.719 156.412 313.998 152.906Z" fill="white"/>
<path d="M295.107 160.548C289.926 158.964 282.497 160.257 280.81 165.89C283.254 167.56 286.335 168.805 290.219 169.368C295.92 170.194 300.352 169.134 303.795 167.085C301.483 164.157 298.456 161.906 295.107 160.548Z" fill="#E26C6C"/>
<path d="M457.04 357.168C457.04 373.091 388.43 386 303.795 386C219.16 386 150.55 373.091 150.55 357.168C150.55 356.331 150.177 353.015 150.55 352.197C157.25 337.437 223.612 328.336 303.795 328.336C383.978 328.336 450.339 337.437 457.04 352.197C457.413 353.017 457.04 356.331 457.04 357.168Z" fill="#A77A56"/>
<path d="M303.795 381.027C388.43 381.027 457.04 368.119 457.04 352.195C457.04 336.272 388.43 323.363 303.795 323.363C219.16 323.363 150.55 336.272 150.55 352.195C150.55 368.119 219.16 381.027 303.795 381.027Z" fill="#DEA373"/>
<path d="M263.227 211.147H261.86V344.809H263.227V211.147Z" fill="#999999"/>
<path d="M262.655 344.866C252.048 344.866 241.504 342.381 232.018 337.629C221.518 332.369 212.515 324.403 205.985 314.592C185.227 283.408 193.713 241.152 224.899 220.396C236.707 212.537 250.438 208.618 264.6 209.067C265.712 209.101 266.585 210.033 266.551 211.145C266.516 212.257 265.586 213.129 264.473 213.096C251.151 212.675 238.239 216.359 227.132 223.751C197.798 243.276 189.816 283.023 209.34 312.358C215.483 321.587 223.95 329.079 233.823 334.026C243.402 338.825 254.13 341.167 264.843 340.798C265.957 340.766 266.889 341.63 266.926 342.742C266.964 343.854 266.094 344.787 264.981 344.827C264.205 344.853 263.429 344.866 262.655 344.866Z" fill="#C1C5C9"/>
<path d="M262.543 334.327C294.233 334.327 319.923 308.639 319.923 276.951C319.923 245.262 294.233 219.574 262.543 219.574C230.853 219.574 205.163 245.262 205.163 276.951C205.163 308.639 230.853 334.327 262.543 334.327Z" fill="#4997D3"/>
<path d="M287.151 255.057C289.096 255.057 290.848 254.243 292.095 252.941C292.715 253.385 293.474 253.651 294.297 253.651C295.238 253.651 296.096 253.307 296.759 252.74C298.991 257.038 303.481 259.977 308.658 259.977C311.594 259.977 314.307 259.031 316.514 257.43C310.124 239.763 295.306 226.13 276.915 221.388C275.864 223.636 275.274 226.141 275.274 228.787C275.274 229.406 275.307 230.015 275.37 230.618C273.626 231.217 272.134 232.349 271.084 233.823C270.412 233.417 269.628 233.182 268.786 233.182C266.939 233.182 265.352 234.303 264.673 235.904C263.736 234.977 262.446 234.404 261.023 234.404C259.081 234.404 257.391 235.47 256.498 237.047C255.187 236.262 253.654 235.811 252.014 235.811C247.181 235.811 243.264 239.729 243.264 244.561C243.264 245.458 243.399 246.322 243.65 247.135C242.934 247.825 242.484 248.791 242.484 249.865C240.471 249.865 238.827 251.438 238.706 253.422C238.226 253.277 237.715 253.198 237.187 253.198C234.262 253.198 231.89 255.57 231.89 258.495C231.89 261.42 234.262 263.792 237.187 263.792C240.112 263.792 242.484 261.42 242.484 258.495C242.484 258.134 242.448 257.781 242.379 257.44C242.415 257.44 242.45 257.444 242.484 257.444C243.597 257.444 244.594 256.962 245.287 256.199C245.339 256.227 245.392 256.254 245.447 256.277C246.514 256.734 247.75 256.238 248.207 255.171C248.492 254.509 248.407 253.78 248.045 253.214C248.316 253.071 248.564 252.895 248.788 252.694C249.786 253.09 250.873 253.31 252.014 253.31C253.605 253.31 255.094 252.883 256.381 252.141C256.684 253.912 257.717 255.429 259.156 256.383C259.953 259.914 262.521 262.773 265.881 263.976C265.927 264.218 265.98 264.456 266.051 264.687C262.13 265.523 259.188 269.004 259.188 273.174C259.188 277.968 263.074 281.853 267.867 281.853C272.66 281.853 276.546 277.967 276.546 273.174C276.546 271.468 276.051 269.879 275.201 268.537C277.277 267.461 278.698 265.298 278.698 262.799C278.698 262.314 278.64 261.843 278.54 261.389C278.97 261.48 279.416 261.528 279.875 261.528C283.446 261.528 286.339 258.635 286.339 255.065C286.339 255.046 286.336 255.028 286.336 255.01C286.605 255.041 286.875 255.063 287.151 255.063V255.057Z" fill="#EED68C"/>
<path d="M319.606 270.894C319.391 270.878 319.174 270.867 318.954 270.867C316.989 270.867 315.176 271.522 313.721 272.623C313.442 270.691 311.783 269.205 309.772 269.205C309.504 269.205 309.241 269.232 308.988 269.284C308.123 267.952 306.624 267.069 304.918 267.069C304.833 267.069 304.752 267.077 304.668 267.081C304.371 263.828 301.638 261.281 298.308 261.281C294.778 261.281 291.917 264.141 291.917 267.671C291.917 271.2 294.778 274.061 298.308 274.061C299.043 274.061 299.747 273.93 300.405 273.701C300.622 274.251 300.936 274.749 301.326 275.179C301.227 275.171 301.128 275.163 301.027 275.163C298.82 275.163 297.031 276.952 297.031 279.159C297.031 279.595 297.103 280.014 297.232 280.407C294.809 281.095 293.034 283.319 293.034 285.961C293.034 285.966 293.034 285.97 293.034 285.974C292.948 285.97 292.863 285.961 292.775 285.961C289.245 285.961 286.385 288.821 286.385 292.351C286.385 295.881 289.245 298.741 292.775 298.741C294.158 298.741 295.433 298.298 296.479 297.552C296.38 298.256 296.327 298.975 296.327 299.705C296.327 306.287 300.446 311.904 306.244 314.129C314.774 304.115 319.925 291.134 319.925 276.948C319.925 274.903 319.816 272.884 319.608 270.895L319.606 270.894Z" fill="#EED68C"/>
<g style="mix-blend-mode:multiply">
<path d="M290.414 313.838C262.394 313.838 239.681 291.124 239.681 263.107C239.681 244.638 249.552 228.476 264.306 219.602C263.72 219.585 263.134 219.572 262.543 219.572C230.854 219.572 205.163 245.261 205.163 276.949C205.163 308.637 230.854 334.326 262.543 334.326C281.84 334.326 298.911 324.8 309.314 310.197C303.473 312.543 297.095 313.836 290.416 313.836L290.414 313.838Z" fill="#E6E6E6"/>
</g>
<path d="M265.184 342.166H259.903V367.198H265.184V342.166Z" fill="#C1C5C9"/>
<path d="M239.748 362.343H285.337C288.474 362.343 291.022 364.891 291.022 368.027V368.945H234.063V368.027C234.063 364.891 236.611 362.343 239.748 362.343Z" fill="#C1C5C9"/>
<g style="mix-blend-mode:soft-light">
<path d="M302.468 303.832C301.756 303.832 301.035 303.643 300.383 303.246C298.49 302.093 297.89 299.624 299.043 297.731C304.562 288.672 306.326 277.119 303.762 266.825C301.198 256.532 294.22 247.157 285.095 241.744C283.19 240.613 282.56 238.152 283.691 236.245C284.822 234.34 287.283 233.711 289.189 234.841C300.283 241.421 308.432 252.371 311.549 264.884C314.667 277.397 312.606 290.892 305.897 301.904C305.141 303.145 303.82 303.83 302.466 303.83L302.468 303.832Z" fill="#F7EEE7"/>
</g>
<path d="M320.911 344.195C343.68 344.781 366.447 345.367 389.215 345.953C396.874 346.149 404.818 346.292 411.786 343.098C418.755 339.905 423.822 332.436 423.205 324.466C422.57 316.266 409.497 310.99 409.497 310.99C385.354 307.126 355.947 313.767 318.155 327.738L320.91 344.195H320.911Z" fill="#FFC4B3"/>
<path d="M331.193 342.257C328.334 342.233 323.235 341.894 320.508 341.792L320.91 344.193C343.678 344.779 366.445 346.052 389.214 346.638C396.872 346.834 404.816 346.29 411.785 343.097C416.811 340.793 420.849 336.266 422.476 330.928C419.011 336.291 412.934 338.317 407.279 339.91C394.704 343.524 343.072 342.354 331.191 342.257H331.193Z" fill="#BF8473"/>
<path d="M344.426 327.108C345.219 328.146 345.89 329.28 346.405 330.487C347.8 333.748 347.989 337.865 345.673 340.551C344.121 342.351 341.742 343.193 339.423 343.717C334.291 344.88 330.521 346.141 324.683 345.304C321.972 345.781 318.191 346.972 315.482 347.572C310.322 348.717 307.369 350.508 303.151 349.928C302.29 349.811 301.454 349.132 301.297 348.278C301.161 347.528 302.234 346.41 302.234 346.41C302.234 346.41 297.276 348.199 296.852 345.88C296.792 345.554 296.801 345.225 296.869 344.908C295.642 345.006 294.384 345.054 293.245 344.603C291.994 344.11 290.948 342.822 291.198 341.503C291.468 340.073 292.997 339.31 294.343 338.76C294.348 338.758 294.352 338.755 294.357 338.754C293.664 337.447 293.963 335.719 294.806 334.467C295.736 333.089 297.193 332.171 298.635 331.343C306.491 326.83 315.197 323.803 324.155 322.454C323.439 321.341 322.482 320.226 322.222 318.883C322.021 317.85 322.344 316.638 323.255 316.111C324.35 315.478 325.723 316.048 326.851 316.62C329.774 318.099 332.698 319.577 335.62 321.057C339.088 322.077 342.232 324.233 344.426 327.106V327.108Z" fill="#FFC4B3"/>
<path d="M302.521 346.614C305.886 345.009 309.375 343.674 312.958 342.646C314.036 342.337 315.121 342.056 316.211 341.798C316.505 341.729 316.42 341.266 316.125 341.335C312.383 342.221 308.713 343.403 305.171 344.902C304.208 345.309 303.256 345.739 302.314 346.19C302.04 346.32 302.246 346.744 302.521 346.614Z" fill="#F7AB94"/>
<path d="M296.971 344.886C300.418 343.191 303.654 341.098 307.136 339.473C308.886 338.657 310.683 337.906 312.507 337.269C314.306 336.643 316.161 336.189 318.046 335.909C320.077 335.606 322.13 335.509 324.18 335.408C324.309 335.402 324.422 335.331 324.435 335.193C324.446 335.08 324.347 334.932 324.22 334.938C322.372 335.028 320.52 335.113 318.684 335.347C316.796 335.586 314.929 335.988 313.118 336.572C309.422 337.766 305.909 339.461 302.523 341.346C300.615 342.408 298.724 343.499 296.765 344.462C296.493 344.596 296.699 345.02 296.973 344.886H296.971Z" fill="#F7AB94"/>
<path d="M294.711 338.751C297.763 336.991 300.939 335.454 304.153 334.015C307.413 332.555 310.697 331.167 314.18 330.327C316.139 329.852 318.142 329.538 320.156 329.441C320.285 329.434 320.398 329.364 320.41 329.225C320.421 329.112 320.322 328.965 320.195 328.971C316.571 329.145 313.022 329.989 309.618 331.223C307.934 331.834 306.293 332.552 304.656 333.276C303.022 333.999 301.398 334.745 299.794 335.531C298.002 336.407 296.233 337.332 294.503 338.328C294.242 338.479 294.447 338.903 294.711 338.752V338.751Z" fill="#F7AB94"/>
<path d="M178.238 169.651C180.932 187.14 186.858 242.475 182.778 271.201C179.351 295.342 143.795 291.949 143.795 267.852C143.795 246.354 158.737 183.086 156.763 170.807C156.47 164.47 176.592 158.958 178.24 169.651H178.238Z" fill="#FFC4B3"/>
<path d="M147.796 267.654C145.418 254.647 157.132 188.52 156.818 185.693C156.662 184.452 156.659 183.211 156.357 181.97C153.808 204.667 143.795 250.255 143.795 267.852C143.795 281.79 155.691 288.8 166.386 287.563C166.025 287.492 165.663 287.412 165.302 287.324C158.861 285.753 150.176 280.662 147.798 267.654H147.796Z" fill="#BF8473"/>
<path d="M189.897 161.743C191.611 156.324 186.421 153.817 171.769 135.102C171.227 134.41 153.041 154.722 154.683 167.266C155.803 175.829 162.836 183.873 172.361 180.703C178.213 178.757 189.897 161.743 189.897 161.743Z" fill="#FFC4B3"/>
<path d="M162.295 162.219C162.217 162.084 162.223 161.907 162.325 161.776C164.406 159.118 183.318 156.294 185.469 155.981C185.686 155.95 185.887 156.101 185.918 156.316C185.95 156.533 185.8 156.734 185.584 156.765C179.83 157.604 164.546 160.227 162.95 162.265C162.815 162.436 162.567 162.467 162.394 162.332C162.353 162.301 162.32 162.262 162.297 162.219H162.295Z" fill="#BF8473"/>
<path d="M212.553 147.719L211.431 142.355L223.988 139.826L225.109 145.19L212.553 147.719Z" fill="#333333"/>
<path d="M159.314 156.167L159.308 156.137C158.731 153.382 160.514 150.655 163.271 150.078L207.757 140.774C210.514 140.198 213.239 141.981 213.816 144.737L213.822 144.766C214.399 147.522 212.614 150.248 209.859 150.824L165.373 160.13C162.616 160.706 159.89 158.922 159.314 156.167Z" fill="#333333"/>
<path d="M219.999 141.459C224.562 163.276 245.95 177.263 267.768 172.7C289.586 168.136 303.574 146.751 299.01 124.935C294.447 103.118 273.061 89.1298 251.242 93.6945C229.424 98.2577 215.435 119.643 220 141.461L219.999 141.459ZM253.171 102.926C269.865 99.4342 286.287 110.174 289.778 126.865C293.268 143.556 282.528 159.976 265.834 163.468C249.144 166.96 232.722 156.22 229.231 139.529C225.739 122.838 236.479 106.416 253.17 102.926H253.171Z" fill="#333333"/>
<g style="mix-blend-mode:soft-light">
<path d="M261.169 157.292C260.896 156.988 260.699 156.608 260.617 156.178C260.382 154.929 261.203 153.724 262.452 153.489C268.433 152.359 274.033 148.671 277.432 143.624C280.832 138.577 282.145 132.002 280.945 126.036C280.693 124.789 281.501 123.576 282.748 123.325C283.994 123.073 285.208 123.882 285.46 125.128C286.919 132.382 285.384 140.061 281.251 146.197C277.118 152.334 270.577 156.641 263.307 158.014C262.488 158.168 261.689 157.87 261.167 157.293L261.169 157.292Z" fill="#F7EEE7"/>
</g>
<path d="M173.255 151.2L174.432 135.471C174.627 132.865 176.765 130.936 179.182 131.188C181.6 131.439 183.419 133.776 183.223 136.382L182.046 152.111C181.851 154.717 179.713 156.646 177.296 156.394C174.878 156.143 173.059 153.806 173.255 151.2Z" fill="#FFC4B3"/>
<path d="M181.807 152.088L182.984 136.359C183.179 133.753 185.317 131.824 187.734 132.075C190.152 132.327 191.971 134.664 191.775 137.27L190.598 152.999C190.403 155.605 188.265 157.533 185.848 157.282C183.43 157.031 181.611 154.693 181.807 152.088Z" fill="#FFC4B3"/>
<path d="M165.508 152.932L166.684 137.204C166.879 134.598 169.017 132.669 171.435 132.92C173.852 133.172 175.671 135.509 175.475 138.115L174.298 153.844C174.104 156.45 171.966 158.378 169.548 158.127C167.13 157.876 165.311 155.538 165.508 152.932Z" fill="#FFC4B3"/>
<path d="M158.205 153.914L159.166 141.053C159.325 138.921 161.073 137.346 163.049 137.55C165.026 137.754 166.513 139.666 166.353 141.797L165.392 154.659C165.233 156.791 163.484 158.366 161.508 158.162C159.532 157.958 158.044 156.046 158.205 153.914Z" fill="#FFC4B3"/>
<path d="M182.486 156.066C181.666 155.001 181.517 153.624 181.441 152.103C181.353 150.341 182.236 143.743 182.274 143.464C182.302 143.248 182.489 143.101 182.689 143.135C182.888 143.168 183.028 143.371 182.998 143.589C182.989 143.657 182.088 150.389 182.172 152.073C182.285 154.334 182.59 155.559 184.006 156.396C184.186 156.501 184.253 156.742 184.157 156.933C184.063 157.125 183.84 157.194 183.661 157.089C183.163 156.795 182.78 156.451 182.484 156.068L182.486 156.066Z" fill="#D68C7A"/>
<path d="M174.039 154.734C173.235 153.69 173.091 152.347 173.012 150.782C172.924 149.02 173.807 142.422 173.845 142.143C173.873 141.927 174.06 141.78 174.259 141.814C174.459 141.847 174.599 142.05 174.569 142.268C174.559 142.336 173.659 149.068 173.742 150.752C173.856 153.014 174.16 154.236 175.577 155.075C175.756 155.18 175.824 155.421 175.728 155.612C175.634 155.804 175.411 155.873 175.232 155.768C174.723 155.468 174.335 155.122 174.038 154.736L174.039 154.734Z" fill="#D68C7A"/>
<path d="M166.42 156.962C165.6 155.897 165.451 154.519 165.376 152.999C165.288 151.236 166.171 144.639 166.208 144.359C166.237 144.144 166.424 143.996 166.623 144.031C166.823 144.065 166.962 144.268 166.933 144.485C166.923 144.552 166.021 151.285 166.106 152.967C166.219 155.228 166.524 156.453 167.941 157.29C168.12 157.395 168.188 157.636 168.092 157.827C167.998 158.019 167.775 158.088 167.595 157.983C167.097 157.689 166.714 157.345 166.419 156.962H166.42Z" fill="#D68C7A"/>
<path d="M158.946 156.872C158.126 155.807 157.977 154.429 157.901 152.909C157.813 151.148 158.696 144.549 158.734 144.269C158.762 144.054 158.949 143.906 159.149 143.941C159.348 143.976 159.488 144.178 159.458 144.395C159.449 144.463 158.549 151.195 158.632 152.877C158.745 155.138 159.05 156.361 160.467 157.2C160.646 157.305 160.713 157.546 160.617 157.737C160.523 157.929 160.3 157.998 160.121 157.893C159.623 157.599 159.24 157.255 158.944 156.872H158.946Z" fill="#D68C7A"/>
<path d="M178.798 175.689C187.961 169.145 197.546 162.401 197.546 162.401C199.755 159.057 197.973 154.023 197.072 148.859C195.711 141.075 194.86 130.704 189.883 134.053C182.315 139.147 188.371 152.293 185.796 153.198C170.516 158.57 169.635 182.234 178.798 175.69V175.689Z" fill="#FFC4B3"/>
</svg>
